# xmcd CD database file
#
# Track frame offsets:
#	150
#	24362
#	48878
#	85615
#	111387
#	145203
#	173532
#	196838
#	227427
#	253312
#	284986
#
# Disc length: 4336 seconds
#
# Revision: 1
# Processed by: cddbd v1.5.2PL0 Copyright (c) Steve Scherf et al.
# Submitted via: CDex 1.51
#
DISCID=9210ee0b
DTITLE=The Healing Garden - Relaxation
DYEAR=2004
DGENRE=New Age
TTITLE0=Tranquil Moments
TTITLE1=The Magic
TTITLE2=Tender Wishes
TTITLE3=Cool Breeze
TTITLE4=Eternal Peace
TTITLE5=Body Retreat
TTITLE6=Serenity
TTITLE7=Body and Soul
TTITLE8=Pure Splendor
TTITLE9=Sanctuary
TTITLE10=Secret Whispers
EXTD=YEAR: 2004
EXTT0=
EXTT1=
EXTT2=
EXTT3=
EXTT4=
EXTT5=
EXTT6=
EXTT7=
EXTT8=
EXTT9=
EXTT10=
PLAYORDER=
